<?xml version="1.0" encoding="UTF-8"?>
<svg version="1.1" xmlns="http://www.w3.org/2000/svg" width="240" height="260">
<path d="M0 0 C79.2 0 158.4 0 240 0 C240 85.8 240 171.6 240 260 C160.8 260 81.6 260 0 260 C0 174.2 0 88.4 0 0 Z " fill="#F9F9F9" transform="translate(0,0)"/>
<path d="M0 0 C2.7777348 2.7777348 4.02329388 6.15631655 5.625 9.6875 C8.92478362 16.84199268 12.47420177 23.81077412 16.23828125 30.73046875 C21 39.56762749 21 39.56762749 21 42 C21.86238281 42.03738281 22.72476563 42.07476562 23.61328125 42.11328125 C33.46169837 42.64366063 43.04106039 43.98755377 52.76123047 45.62695312 C56.06556583 46.17755557 59.37581223 46.68299914 62.6875 47.1875 C63.72261719 47.34605469 64.75773438 47.50460938 65.82421875 47.66796875 C66.54222656 47.77753906 67.26023438 47.88710937 68 48 C67.03126953 48.96486328 67.03126953 48.96486328 66.04296875 49.94921875 C63.63568624 52.3548042 61.24861364 54.77969029 58.86328125 57.20703125 C57.34646502 58.74229703 55.82953531 60.2774507 54.3125 61.8125 C53.54099609 62.60076172 52.76949219 63.38902344 51.97460938 64.20117188 C51.23662109 64.94560547 50.49863281 65.69003906 49.73828125 66.45703125 C49.06837158 67.13741455 48.39846191 67.81779785 47.70825195 68.51879883 C46 70 46 70 44 70 C44 70.66 44 71.32 44 72 C43.34 72 42.68 72 42 72 C41.731875 72.639375 41.46375 73.27875 41.1875 73.9375 C40 76 40 76 37 77 C37 77.66 37 78.32 37 79 C36.01 79.495 36.01 79.495 35 80 C35.60876481 85.86932993 36.3826677 91.65548529 37.41015625 97.46484375 C37.54191757 98.22422745 37.67367889 98.98361115 37.80943298 99.76600647 C38.22455652 102.15695973 38.64322526 104.54727149 39.0625 106.9375 C39.48496445 109.35278481 39.90662375 111.76820061 40.32627869 114.18397522 C40.5860783 115.6789356 40.84754395 117.17360761 41.1108551 118.66795349 C42 123.77573952 42 123.77573952 42 126 C36.99364886 124.5183696 32.6793073 122.36174962 28.125 119.875 C26.62445384 119.06890377 25.123131 118.26425189 23.62109375 117.4609375 C22.85909668 117.05327148 22.09709961 116.64560547 21.31201172 116.22558594 C17.6264428 114.27188415 13.91302626 112.37617053 10.1875 110.5 C9.52443848 110.16210449 8.86137695 109.82420898 8.17822266 109.47607422 C3.77648417 107.05261043 3.77648417 107.05261043 -1 106 C-3.38127131 107.05003295 -5.51003833 108.14054209 -7.75 109.4375 C-9.08873237 110.18298888 -10.42861725 110.92641115 -11.76953125 111.66796875 C-12.46256348 112.05388184 -13.1555957 112.43979492 -13.86962891 112.83740234 C-17.3459463 114.73451711 -20.88853719 116.49360838 -24.4375 118.25 C-25.07461914 118.56638428 -25.71173828 118.88276855 -26.36816406 119.20874023 C-27.60665714 119.82331747 -28.84574019 120.43670739 -30.08544922 121.04882812 C-31.4650708 121.73424074 -32.84130227 122.42649222 -34.21533203 123.12304688 C-34.93962402 123.48978516 -35.66391602 123.85652344 -36.41015625 124.234375 C-37.07281494 124.57178711 -37.73547363 124.90919922 -38.41821289 125.25683594 C-40 126 -40 126 -41 126 C-41.40888963 118.91257974 -39.88520392 112.18781893 -38.5625 105.25 C-36.63283396 95.09359327 -36.63283396 95.09359327 -35.1328125 84.8671875 C-35.02469238 84.02269043 -34.91657227 83.17819336 -34.80517578 82.30810547 C-35.125817 78.50943123 -37.44018071 76.61461352 -40.23828125 74.2421875 C-41.98323786 72.94591215 -41.98323786 72.94591215 -44 72 C-44 71.34 -44 70.68 -44 70 C-44.66 70 -45.32 70 -46 70 C-46 69.34 -46 68.68 -46 68 C-47.485 67.505 -47.485 67.505 -49 67 C-49 66.34 -49 65.68 -49 65 C-49.66 65 -50.32 65 -51 65 C-51 64.34 -51 63.68 -51 63 C-51.53109375 62.79632813 -52.0621875 62.59265625 -52.609375 62.3828125 C-56.02874104 60.40494391 -58.51337921 57.69673101 -61.25 54.875 C-61.80429687 54.31167969 -62.35859375 53.74835938 -62.9296875 53.16796875 C-64.29104485 51.78313972 -65.64614859 50.39216796 -67 49 C-63.35025231 46.56683487 -60.06993094 46.27150115 -55.82421875 45.74609375 C-55.02143997 45.64031509 -54.21866119 45.53453644 -53.39155579 45.42555237 C-50.82443583 45.08881425 -48.25608301 44.76287148 -45.6875 44.4375 C-43.12997718 44.10621466 -40.57274784 43.7727433 -38.01557922 43.43873596 C-36.42534604 43.23183281 -34.83485117 43.02692798 -33.24406433 42.82432556 C-31.80536255 42.64006933 -30.36806462 42.4443619 -28.93275452 42.23532104 C-27 42 -27 42 -23.77197266 41.98071289 C-19.87434277 40.60174695 -19.09070018 38.42036578 -17.29655457 34.8137207 C-16.69149834 33.51374146 -16.69149834 33.51374146 -16.07421875 32.1875 C-15.64115921 31.30344482 -15.20809967 30.41938965 -14.76191711 29.50854492 C-13.38274681 26.68201052 -12.03472688 23.84187798 -10.6875 21 C-9.31563758 18.16179626 -7.93772778 15.32658387 -6.55952454 12.49145508 C-5.70405246 10.72557354 -4.85365459 8.95722351 -4.00871277 7.1862793 C-3.62773941 6.38875244 -3.24676605 5.59122559 -2.85424805 4.76953125 C-2.51926804 4.06417236 -2.18428802 3.35881348 -1.8391571 2.63208008 C-1 1 -1 1 0 0 Z " fill="#FEC300" transform="translate(120,56)"/>
<path d="M0 0 C0.33 0 0.66 0 1 0 C1.23074219 0.82242188 1.46148437 1.64484375 1.69921875 2.4921875 C6.90978513 20.3275649 15.15946828 32.98475537 31.46875 42.4296875 C42.01314027 48.06893419 52.0485907 49.44674163 63.89404297 49.40405273 C65.25387122 49.40976943 66.61369467 49.41673867 67.97351074 49.42485046 C71.63484286 49.44265487 75.29593365 49.44163761 78.95729589 49.43590808 C82.02850539 49.4327973 85.09966977 49.43892959 88.17087281 49.44494683 C95.42401267 49.45894904 102.67703464 49.45746714 109.93017578 49.44604492 C117.38009086 49.43457113 124.82964562 49.44863662 132.27951324 49.4754414 C138.70623755 49.49768786 145.1328495 49.50421565 151.55960953 49.49836498 C155.38459355 49.49501509 159.2093468 49.49727773 163.03429794 49.51461601 C166.63458979 49.53022658 170.23435321 49.52597607 173.83462524 49.50731087 C175.76314143 49.50194287 177.69168218 49.51603148 179.62014771 49.53100586 C195.89530349 49.39536336 209.94487621 43.53620158 221.71875 32.33984375 C230.59156764 23.2391284 236.53909271 12.55062717 239 0 C239.33 0 239.66 0 240 0 C240 23.1 240 46.2 240 70 C160.8 70 81.6 70 0 70 C0 46.9 0 23.8 0 0 Z " fill="#000000" transform="translate(0,190)"/>
<path d="M0 0 C16.5 0 33 0 50 0 C50 16.5 50 33 50 50 C48.22341929 46.44683859 47.03512262 43.13884165 45.8125 39.375 C43.45621523 32.68843378 40.39306776 27.51949538 36 22 C35.236875 20.948125 34.47375 19.89625 33.6875 18.8125 C24.56318375 9.26379695 12.66944633 3.96262718 0 1 C0 0.67 0 0.34 0 0 Z " fill="#000000" transform="translate(190,0)"/>
<path d="M0 0 C16.5 0 33 0 50 0 C50 0.33 50 0.66 50 1 C49.17757812 1.23074219 48.35515625 1.46148437 47.5078125 1.69921875 C29.6724351 6.90978513 17.01524463 15.15946828 7.5703125 31.46875 C4.39229756 37.41107379 2.53080233 43.45364205 1 50 C0.67 50 0.34 50 0 50 C0 33.5 0 17 0 0 Z " fill="#000000" transform="translate(0,0)"/>
<path d="M0 0 C8.58 0 17.16 0 26 0 C22.46166746 4.12805463 19.10127913 8.02586805 15.29296875 11.83984375 C14.45958984 12.67451172 13.62621094 13.50917969 12.76757812 14.36914062 C11.91615234 15.21669922 11.06472656 16.06425781 10.1875 16.9375 C9.31673828 17.81212891 8.44597656 18.68675781 7.54882812 19.58789062 C6.30842773 20.82635742 6.30842773 20.82635742 5.04296875 22.08984375 C4.29039795 22.84128662 3.53782715 23.59272949 2.76245117 24.36694336 C1 26 1 26 0 26 C0 17.42 0 8.84 0 0 Z " fill="#FFFFFF" transform="translate(0,0)"/>
</svg>
